<svg width="40" height="20" viewBox="0 0 40 20" fill="none" xmlns="http://www.w3.org/2000/svg">
<path d="M39.795 17.5717L35.2217 9.84842L39.7483 2.44008C39.8558 2.26354 39.9145 2.06162 39.9183 1.85497C39.9221 1.64832 39.871 1.44437 39.7701 1.26398C39.6692 1.08359 39.5222 0.933231 39.3441 0.828295C39.1661 0.723358 38.9633 0.667608 38.7567 0.666748H2.33333C1.71449 0.666748 1.121 0.912581 0.683417 1.35017C0.245833 1.78775 0 2.38124 0 3.00008L0 17.0001C0 17.6189 0.245833 18.2124 0.683417 18.65C1.121 19.0876 1.71449 19.3334 2.33333 19.3334H38.7917C38.9976 19.3334 39.1998 19.2788 39.3778 19.1753C39.5559 19.0718 39.7033 18.9231 39.8052 18.7441C39.9071 18.5652 39.9599 18.3625 39.9581 18.1566C39.9563 17.9506 39.9 17.7489 39.795 17.5717ZM12.2617 13.7101H10.955L7.15167 8.64675V13.7217H5.83333V6.50008H7.15167L10.9667 11.5751V6.50008H12.2733L12.2617 13.7101ZM19.6467 7.66675H15.5283V9.40508H19.2617V10.5717H15.5283V12.4501H19.6467V13.6167H14.21V6.50008H19.635L19.6467 7.66675ZM29.3183 13.6867H28L26.1917 8.33175L24.3833 13.7101H23.0767L20.7433 6.50008H22.1667L23.7067 11.6684L25.48 6.50008H26.9033L28.6067 11.6684L30.1583 6.50008H31.5933L29.3183 13.6867Z" fill="#0E9F6E"/>
</svg>
