<svg width="22" height="25" viewBox="0 0 22 25" fill="none" xmlns="http://www.w3.org/2000/svg">
<path d="M16.3333 5.99996L15.7466 6.73329C14.1733 8.69329 10.9999 7.58663 10.9999 5.06663V0.666626C10.9999 0.666626 0.333252 5.99996 0.333252 15.3333C0.333252 19.2266 2.41325 22.6266 5.51992 24.48C4.77325 23.4266 4.33325 22.1333 4.33325 20.7466C4.33325 18.9866 5.02659 17.3333 6.29325 16.08L10.9999 11.4666L15.7066 16.0933C16.9733 17.3333 17.6666 18.9866 17.6666 20.76C17.6666 22.12 17.2533 23.3733 16.5333 24.4266C19.0533 22.8933 20.9199 20.3466 21.4799 17.36C22.3599 12.6266 20.0533 8.15996 16.3333 5.99996Z" fill="#C81E1E"/>
</svg>
